<svg xmlns="http://www.w3.org/2000/svg" version="1.0" preserveAspectRatio="xMidYMid meet" viewBox="13.11 106.63 442.25 256.21">

<g transform="translate(0.000000,475.000000) scale(0.100000,-0.100000)" fill="#ffffff" stroke="none">
<path d="M2170 3682 c-14 -1 -114 -19 -224 -38 -147 -27 -204 -33 -220 -26 -11 6 -29 13 -38 15 -22 8 -278 -12 -296 -22 -9 -5 -25 -2 -41 6 -23 14 -43 14 -169 1 -140 -15 -144 -16 -172 -46 -16 -18 -33 -32 -38 -32 -5 0 -15 -13 -22 -29 -14 -34 0 -119 25 -157 13 -21 12 -23 -46 -44 -34 -12 -62 -20 -64 -18 -2 2 0 19 4 38 11 50 -4 86 -41 99 -17 6 -94 11 -172 11 -236 0 -338 -33 -443 -143 -78 -81 -96 -135 -72 -221 12 -42 73 -115 125 -147 39 -24 44 -45 13 -54 -11 -4 -27 -21 -34 -38 -15 -39 -29 -197 -20 -227 12 -36 63 -50 187 -50 255 1 377 44 449 159 18 30 29 41 33 31 2 -8 8 -28 13 -45 15 -49 44 -56 158 -40 70 10 101 11 104 3 8 -24 43 -48 69 -48 58 1 206 30 222 45 23 21 26 19 41 -16 20 -49 58 -60 151 -44 92 16 116 28 124 60 3 13 14 31 25 41 11 10 19 30 19 50 0 42 -3 41 205 49 156 7 192 14 208 41 4 8 20 14 35 14 42 0 103 20 142 46 l35 24 8 -52 c10 -66 34 -93 85 -92 62 1 153 25 174 46 11 11 21 18 22 16 1 -1 6 -16 12 -33 5 -17 22 -36 37 -43 41 -20 148 -6 193 24 34 23 36 24 161 13 70 -5 128 -11 128 -12 24 -53 60 -70 200 -97 72 -14 111 -3 125 35 5 14 18 38 29 53 14 20 24 65 36 167 28 236 21 215 72 215 51 0 48 5 109 -175 l37 -110 -82 -125 c-45 -69 -84 -135 -88 -148 -8 -32 11 -70 40 -81 51 -20 217 -38 239 -27 12 6 85 95 162 197 78 103 188 244 246 315 169 207 188 246 142 287 -18 16 -206 77 -239 77 -10 0 -47 -27 -80 -60 -34 -33 -64 -56 -66 -52 -2 4 -16 44 -31 88 -15 45 -35 89 -45 98 -28 25 -236 79 -316 82 -38 1 -146 9 -240 18 -93 9 -211 18 -261 19 l-90 2 -47 -45 c-34 -32 -49 -55 -53 -82 -5 -27 -12 -38 -24 -38 -15 0 -17 7 -13 43 9 80 -53 154 -154 183 -81 24 -233 14 -385 -24 -110 -27 -120 -32 -165 -76 l-48 -48 -8 78 c-10 100 -31 125 -97 116z m43 -136 c4 -43 6 -81 4 -83 -3 -2 -43 -11 -89 -20 l-85 -16 -7 -120 c-10 -188 -9 -205 11 -203 12 1 19 -10 24 -40 6 -33 28 -92 46 -125 2 -3 -70 -9 -159 -13 -221 -10 -211 -6 -203 -75 13 -116 19 -104 -64 -119 -40 -7 -74 -12 -75 -10 -1 2 -40 78 -87 170 -46 91 -86 165 -88 163 -2 -3 4 -65 14 -140 10 -74 17 -137 14 -139 -2 -2 -25 -7 -50 -11 l-46 -7 -13 69 c-15 81 -31 103 -76 103 -27 0 -35 5 -39 23 -3 12 -23 119 -46 237 -54 286 -45 260 -84 260 -39 0 -42 3 -51 57 l-6 40 38 6 c22 4 82 9 135 13 l96 7 59 -96 c32 -53 60 -94 62 -93 1 2 -6 41 -17 87 -11 46 -17 86 -15 89 6 6 147 18 222 19 46 1 52 -1 52 -20 0 -17 4 -20 23 -15 13 3 109 21 213 40 104 19 200 36 214 39 61 11 64 8 73 -77z m667 28 c44 -18 100 -75 100 -102 0 -21 -22 -55 -63 -99 l-31 -33 22 -23 c17 -18 22 -35 22 -79 0 -35 5 -60 14 -67 21 -17 30 -120 12 -140 -8 -9 -20 -44 -27 -79 -12 -62 -12 -63 -42 -60 l-31 3 -31 141 c-44 198 -59 228 -104 205 -39 -22 -41 -31 -21 -166 11 -72 16 -133 12 -136 -7 -7 -104 -29 -126 -29 -19 0 -29 86 -30 240 -1 111 -3 129 -23 161 -13 20 -23 44 -23 53 0 12 -5 16 -18 12 -25 -8 -47 18 -76 90 -17 42 -21 61 -13 65 18 10 176 48 242 58 77 12 184 5 235 -15z m685 -80 c77 -8 172 -17 210 -19 61 -3 226 -42 254 -59 5 -4 31 -72 58 -151 26 -80 51 -145 54 -145 4 0 39 45 79 100 39 55 77 100 85 100 18 0 178 -50 187 -59 4 -3 -42 -67 -103 -141 -61 -74 -169 -214 -241 -310 -72 -96 -134 -178 -137 -181 -6 -7 -179 16 -188 25 -5 5 86 154 150 246 l25 35 -60 170 c-33 94 -62 178 -65 188 -4 13 -8 15 -13 7 -5 -9 -32 -9 -109 0 -56 7 -104 11 -106 9 -1 -2 -17 -111 -33 -242 -16 -131 -33 -241 -36 -244 -6 -7 -166 24 -184 36 -7 4 -5 67 9 211 24 269 24 268 -3 272 -16 2 -24 11 -26 28 -8 53 -29 63 -121 57 l-83 -5 6 37 c3 20 6 42 6 50 0 12 21 13 123 7 67 -4 185 -14 262 -22z m-1277 -78 c-2 -1 -15 -7 -30 -14 -23 -9 -26 -9 -21 3 3 8 9 15 13 15 5 0 12 10 16 22 l7 23 9 -24 c4 -13 7 -25 6 -25z m-1470 -41 c9 -9 -19 -106 -40 -138 -22 -36 -24 -36 -68 -29 -80 13 -245 8 -263 -7 -43 -35 -8 -58 144 -96 179 -44 254 -105 266 -217 8 -75 -17 -117 -91 -153 -69 -34 -144 -45 -300 -45 l-129 0 7 87 c3 48 10 91 14 94 4 4 27 4 52 -1 76 -15 253 -12 276 4 27 20 9 46 -42 62 -156 46 -195 60 -245 85 -132 66 -180 151 -134 239 29 57 122 103 240 120 55 8 304 4 313 -5z m2495 -60 c-2 -64 -11 -75 -58 -75 -16 0 -35 -4 -41 -8 -13 -9 -46 -224 -36 -234 4 -4 32 -8 62 -10 l55 -3 -4 -60 c-2 -33 -5 -62 -6 -65 -4 -6 -303 14 -308 21 -2 2 1 27 6 56 8 51 9 52 45 55 41 3 36 -11 56 166 l7 64 -55 -7 -56 -7 6 63 c4 35 10 68 14 72 7 8 268 36 300 33 12 -1 15 -15 13 -61z m-892 25 c101 -52 113 -185 28 -314 -116 -175 -325 -121 -324 84 1 43 7 76 18 98 24 44 85 111 122 134 40 24 106 23 156 -2z m-287 -47 c-43 -59 -44 -59 -44 -20 0 30 5 40 23 47 43 17 48 11 21 -27z m-1017 -39 c7 -27 13 -51 13 -54 0 -3 -34 -18 -75 -34 -76 -29 -82 -35 -69 -83 l6 -21 70 29 c39 16 74 29 78 29 4 0 10 -12 14 -27 3 -16 8 -38 12 -49 5 -19 -3 -25 -66 -50 -39 -15 -73 -31 -76 -36 -3 -5 0 -33 7 -63 l12 -55 41 6 c23 3 68 10 101 15 113 17 113 17 120 -46 4 -31 6 -57 4 -59 -7 -7 -340 -48 -345 -43 -3 3 -26 89 -51 191 -36 152 -48 186 -61 184 -13 -2 -18 9 -24 51 -5 30 -7 59 -5 64 3 11 257 107 272 103 5 -1 15 -25 22 -52z m2176 -131 c-6 -76 -12 -88 -40 -79 -18 6 -19 11 -10 69 10 60 19 77 44 77 9 0 11 -18 6 -67z m-263 21 c0 -8 -5 -12 -10 -9 -6 4 -8 11 -5 16 9 14 15 11 15 -7z m-1910 -218 c0 -18 -27 -29 -36 -14 -4 5 0 14 7 19 20 13 29 11 29 -5z"/>
<path d="M1776 3372 l-68 -15 5 -48 c3 -27 12 -115 19 -196 10 -115 14 -137 18 -98 l5 50 53 6 c29 4 55 9 57 11 6 6 -8 308 -14 307 -3 -1 -37 -8 -75 -17z"/>
<path d="M2655 3430 c-11 -18 4 -100 19 -100 21 0 89 81 78 92 -15 15 -88 22 -97 8z"/>
<path d="M2323 3258 c-29 -38 -20 -91 17 -103 26 -8 60 19 60 48 0 20 -1 20 -13 3 -7 -10 -22 -16 -33 -14 -15 3 -19 12 -19 41 0 42 1 41 -12 25z"/>
<path d="M1526 2520 c-254 -68 -453 -273 -511 -525 -18 -77 -21 -240 -5 -308 77 -346 395 -588 740 -563 110 8 176 26 275 75 135 68 241 170 308 298 17 35 34 63 37 63 3 -1 15 -23 28 -49 33 -72 113 -172 179 -225 66 -53 214 -128 286 -145 377 -90 762 142 857 515 25 96 27 251 4 343 -49 202 -192 380 -379 471 -117 57 -195 73 -340 68 -101 -4 -134 -9 -206 -35 -165 -57 -319 -189 -396 -338 l-38 -75 -90 0 -89 0 63 64 64 64 -32 41 c-98 123 -251 224 -397 261 -102 26 -262 26 -358 0z m344 -66 c98 -25 197 -81 277 -157 l74 -71 -103 -103 -102 -102 154 -3 155 -3 13 -60 c30 -140 -2 -321 -80 -453 -42 -72 -148 -178 -220 -220 -135 -80 -309 -110 -458 -78 -190 40 -367 177 -448 346 -53 111 -66 174 -65 295 2 210 99 392 276 516 151 106 342 139 527 93z m1325 -1 c215 -53 403 -243 460 -463 21 -82 21 -234 0 -315 -44 -173 -177 -336 -335 -414 -204 -99 -427 -92 -618 21 -85 50 -191 160 -235 245 -132 252 -93 542 99 743 170 177 392 242 629 183z"/>
<path d="M1630 2420 c-223 -29 -411 -187 -486 -405 -22 -65 -27 -99 -27 -180 -1 -55 2 -105 5 -111 5 -7 39 -5 110 7 57 9 124 19 149 23 l45 7 0 67 c0 163 123 287 284 285 77 -1 125 -20 181 -70 l40 -36 110 109 110 109 -56 52 c-114 107 -302 165 -465 143z"/>
<path d="M1632 2051 c-196 -69 -214 -333 -29 -426 76 -38 177 -31 238 16 24 18 24 19 -88 19 l-113 0 0 180 0 180 103 0 102 1 -35 18 c-56 30 -117 34 -178 12z"/>
<path d="M1690 1879 l0 -90 53 6 c96 11 351 25 455 25 l102 0 0 29 c0 15 -3 49 -6 75 l-7 46 -298 0 -299 0 0 -91z"/>
<path d="M1990 1790 c-69 -4 -164 -10 -212 -14 l-88 -8 0 -29 0 -28 136 -3 137 -3 -34 -44 c-108 -140 -308 -147 -428 -15 -28 31 -51 62 -51 69 0 8 -4 16 -8 19 -8 5 -230 -26 -290 -39 -28 -7 -26 -19 28 -130 67 -138 193 -247 342 -296 96 -31 273 -34 358 -5 156 53 288 164 353 296 37 75 67 174 67 217 0 22 -2 23 -92 21 -51 0 -149 -4 -218 -8z"/>
<path d="M2949 2420 c-272 -42 -484 -264 -506 -531 l-6 -69 119 0 c65 0 136 -3 157 -6 l37 -7 0 45 c0 60 49 158 100 198 58 46 107 63 181 64 160 1 282 -123 281 -286 l0 -67 46 -7 c26 -4 93 -14 150 -24 56 -9 105 -13 108 -8 12 19 4 206 -11 262 -75 284 -369 480 -656 436z"/>
<path d="M2970 2056 c-127 -34 -197 -165 -159 -300 14 -51 91 -128 145 -144 117 -34 231 14 286 122 62 122 -10 280 -146 321 -58 18 -66 18 -126 1z m167 -52 c45 -26 93 -95 93 -132 0 -20 -5 -22 -49 -22 -41 0 -51 4 -56 20 -9 29 -54 60 -87 60 -42 0 -87 -26 -94 -55 -6 -23 -11 -25 -60 -25 -62 0 -66 8 -35 69 24 46 82 99 119 107 15 3 32 7 37 10 22 8 93 -9 132 -32z m-60 -126 c43 -40 18 -108 -40 -108 -38 0 -50 7 -66 37 -21 40 14 92 63 93 11 0 30 -10 43 -22z m-129 -92 c41 -69 123 -68 167 1 18 29 25 32 69 33 l49 0 -6 -37 c-13 -79 -108 -153 -198 -153 -87 0 -179 74 -195 158 l-6 32 50 0 c46 0 52 -3 70 -34z"/>
<path d="M2440 1778 c0 -13 7 -52 15 -87 61 -257 308 -451 575 -451 203 1 391 103 501 274 38 57 84 164 75 173 -4 4 -136 28 -263 47 -42 6 -43 5 -62 -33 -30 -58 -105 -119 -169 -137 -157 -46 -304 40 -355 207 -5 17 -113 29 -254 29 -59 0 -63 -2 -63 -22z"/>
</g>
</svg>